<?xml version="1.0" encoding="utf-8"?>
<!-- Generator: Adobe Illustrator 22.1.0, SVG Export Plug-In . SVG Version: 6.00 Build 0)  -->
<svg version="1.1" xmlns="http://www.w3.org/2000/svg" xmlns:xlink="http://www.w3.org/1999/xlink" x="0px" y="0px"
	 viewBox="0 0 800 200" style="enable-background:new 0 0 800 200;" xml:space="preserve">
<style type="text/css">
	.st0{fill:url(#SVGID_1_);}
	.st1{fill:url(#SVGID_2_);}
	.st2{fill:url(#SVGID_3_);}
	.st3{fill:url(#SVGID_4_);}
	.st4{fill:url(#SVGID_5_);}
	.st5{fill:url(#SVGID_6_);}
	.st6{fill:url(#SVGID_7_);stroke:#000000;stroke-width:0.5;stroke-miterlimit:10;}
	.st7{fill:url(#SVGID_8_);stroke:#000000;stroke-width:0.5;stroke-miterlimit:10;}
	.st8{fill:url(#SVGID_9_);stroke:#000000;stroke-width:0.5;stroke-miterlimit:10;}
	.st9{fill:url(#SVGID_10_);stroke:#000000;stroke-width:0.5;stroke-miterlimit:10;}
</style>
<g id="Layer_1">
	<g>
		<linearGradient id="SVGID_1_" gradientUnits="userSpaceOnUse" x1="279.2823" y1="55.8636" x2="361.5803" y2="138.1617">
			<stop  offset="0" style="stop-color:#4D4D4D"/>
			<stop  offset="1" style="stop-color:#000000"/>
		</linearGradient>
		<path class="st0" d="M298.7,175.6c-3.4,0-6.7-0.8-9.9-2.4c-3.3-1.6-6.5-4.1-9.5-7.3c-6.4-6.8-11.3-13.5-14.5-20.3
			c-3.2-6.8-4.9-13.8-4.9-21.2c0-6,0.6-12.3,1.8-18.9s3-13.1,5.4-19.7c2.4-6.6,5.2-13.1,8.7-19.4c3.4-6.4,7.3-12.3,11.7-17.8
			c2.9-3.8,6.2-7.1,9.7-10.1c3.5-3,7.3-5.6,11.4-7.9c7.1-3.9,13.3-6.7,18.6-8.5c5.3-1.7,9.5-2.6,12.6-2.6c2.1,0,4.5,0.5,7.3,1.5
			c2.7,1,5.7,2.5,8.8,4.4c3.1,1.9,6.4,4.4,9.8,7.3c3.4,2.9,6.9,6.4,10.4,10.3l-17.4,19.8c-2.9-3-5.7-5.8-8.5-8.4
			c-2.8-2.6-5.6-4.9-8.4-7c-2.8-2.1-5.7-3.9-8.7-5.3c-3-1.5-6.2-2.5-9.4-3.2c-7.9,6.1-14.7,15.6-20.2,28.4c-2.4,5.5-4.4,11-6,16.4
			c-1.6,5.4-2.9,10.4-3.9,15.1c-1,4.7-1.8,8.9-2.2,12.7c-0.4,3.8-0.7,6.9-0.7,9.2c0,2.9,0.6,5.9,1.8,9c1.2,3,3,6.3,5.3,9.9
			c1.5,2.3,2.9,4.3,4.3,6c1.3,1.7,2.7,3.1,4.1,4.3c1.4,1.2,2.8,2,4.3,2.6c1.5,0.6,3.1,0.9,4.9,0.9c3.6,0,8.3-1.2,14.1-3.7
			c5.8-2.5,12.4-6.4,19.9-11.7l5.2,7.8C329.9,165.5,311.4,175.6,298.7,175.6z"/>
		<linearGradient id="SVGID_2_" gradientUnits="userSpaceOnUse" x1="371.5213" y1="85.1543" x2="424.5215" y2="138.1546">
			<stop  offset="0" style="stop-color:#4D4D4D"/>
			<stop  offset="1" style="stop-color:#000000"/>
		</linearGradient>
		<path class="st1" d="M404.8,70.3c0,1.4,0,2.4,0.1,3.2c0.1,0.8,0.1,1.3,0.1,1.5c0,5.1-0.2,10.4-0.7,15.8
			c-0.5,5.4-1.1,11.1-1.8,16.9c4.7-8.7,9.2-15.9,13.4-21.7c4.2-5.8,8.6-10.2,13.3-13.1l4.9,0.2c1.4,0.8,2.8,1.7,4.2,2.7
			c1.4,1.1,2.8,2.3,4.2,3.6c-1.8,4.2-3.6,8.7-5.5,13.5c-1.9,4.9-3.7,10-5.5,15.6c-2.6-0.8-5.2-1.4-7.9-2c-2.7-0.6-5.5-1.1-8.3-1.6
			c-3.4,3.6-6.1,7.4-8,11.4c-1.9,4-3.5,8.1-4.7,12.3c-1.2,4.2-2.2,8.6-2.9,13.2c-0.7,4.5-1.6,9.2-2.6,14
			c-2.3,11.6-5.4,17.4-9.4,17.4c-1.5,0-3.1-0.4-4.7-1.3c-1.6-0.9-3.1-2-4.6-3.3c-1.5-1.4-2.9-2.9-4.2-4.7c-1.3-1.8-2.4-3.6-3.4-5.3
			c-1-1.8-1.8-3.5-2.3-5.2c-0.5-1.7-0.8-3.1-0.8-4.4c0-1.6,0.6-3.4,1.9-5.5c1.3-2.1,2.8-4.8,4.5-8.1c1.6-3.3,3-6.2,3.9-8.7
			c1-2.5,1.8-4.8,2.3-6.8c0.5-2,0.9-3.8,1.1-5.4c0.2-1.6,0.3-3,0.3-4.2c0-1,0-1.9-0.1-2.7c-0.1-0.9-0.1-1.7-0.1-2.4
			c0-4.5-0.1-9.1-0.4-13.7c-0.2-4.6-0.8-9.3-1.6-14.2L404.8,70.3z"/>
		<linearGradient id="SVGID_3_" gradientUnits="userSpaceOnUse" x1="458.573" y1="93.2588" x2="517.1741" y2="151.8599">
			<stop  offset="0" style="stop-color:#4D4D4D"/>
			<stop  offset="1" style="stop-color:#000000"/>
		</linearGradient>
		<path class="st2" d="M441.5,147.8c0-4.4,0.5-9.1,1.5-14c1-5,2.5-10.1,4.5-15.4c2-5.3,4.4-10.6,7.4-15.9
			c2.9-5.4,6.4-10.6,10.3-15.7c2.9-2.3,6.1-4.4,9.5-6.3c3.4-1.8,7-3.4,10.7-4.7c3.7-1.3,7.5-2.3,11.4-2.9c3.9-0.6,7.8-1,11.6-1
			c3.2,0,5.9,0.3,8.2,1c2.2,0.7,4,1.8,5.4,3.5c1.4,1.6,2.4,3.8,3,6.6c0.6,2.7,0.9,6.2,0.9,10.4c0,4.9-0.3,8.8-0.9,11.9
			c-0.6,3.1-1.5,5.6-2.6,7.5c-1.2,1.9-2.6,3.5-4.4,4.6c-1.7,1.1-3.8,2.1-6.1,3c-6.6,2.5-13.3,4.8-20.3,6.9c-6.9,2.1-14.2,4-21.9,5.7
			c1.2,4.9,2.7,9.1,4.5,12.7c1.8,3.6,4,6.9,6.8,9.7c6.3-1.2,12.5-3.4,18.6-6.8c6.1-3.3,12.4-7.4,19.1-12.1L517,152
			c-5.9,4.5-11.6,8.3-17,11.3c-5.5,3-10.4,5.5-14.9,7.3c-4.4,1.8-8.2,3.2-11.4,3.9c-3.1,0.8-5.3,1.2-6.6,1.2c-1.5,0-3.4-0.5-5.6-1.6
			c-2.2-1.1-4.5-2.6-6.9-4.7c-2.4-2.1-4.8-4.6-7.1-7.7c-2.3-3.1-4.3-6.7-6-10.8V147.8z M473.7,119.7c5-1,9.2-2.1,12.5-3.2
			c3.3-1.1,6-2.7,8-4.8c2-2.1,3.4-4.9,4.3-8.5c0.8-3.5,1.2-8.2,1.2-14v-4.6c-4.4,0.4-8.2,1.2-11.6,2.5c-3.6,5.9-6.7,11.6-9.2,16.9
			C476.5,109.3,474.8,114.5,473.7,119.7z"/>
		<linearGradient id="SVGID_4_" gradientUnits="userSpaceOnUse" x1="546.2713" y1="96.7251" x2="601.3527" y2="151.8065">
			<stop  offset="0" style="stop-color:#4D4D4D"/>
			<stop  offset="1" style="stop-color:#000000"/>
		</linearGradient>
		<path class="st3" d="M541.8,138.6c7.4,4.3,14,7.6,19.9,9.9c5.9,2.3,11.1,3.5,15.8,3.5c0.8,0,1.7-0.1,2.7-0.3c1-0.2,1.9-0.4,3-0.6
			l2.4-3.8c-1.1-2.2-2.7-4-4.7-5.4s-4.3-3-6.9-4.8c-4.3-2.9-8.2-5.7-11.6-8.2c-3.4-2.5-6.3-4.9-8.7-7.3c-2.4-2.4-4.2-4.7-5.4-7.1
			c-1.2-2.4-1.8-4.9-1.8-7.5c0-2.9,1-6.3,3-10.2c2-3.9,5.1-8.2,9.4-12.7c3.8-4.1,7.4-7.2,11-9.3c3.6-2.1,7.7-3.1,12.5-3.1
			c2.1,0,4.5,0.3,7.2,0.9s5.5,1.5,8.5,2.8c3,1.2,6,2.8,9.2,4.6c3.1,1.8,6.3,4,9.4,6.6l-12,18.7c-6.8-4.1-12.6-7.4-17.6-9.8
			c-5-2.4-9.6-3.6-13.8-3.6c-0.4,0-0.8,0-1.2,0.1c-0.4,0.1-0.8,0.1-1.2,0.1l-5.6,3.8c2.4,3.7,5.4,6.9,9,9.6
			c3.6,2.7,7.5,5.5,11.6,8.5c2.5,1.8,4.7,3.5,6.7,5.1c2,1.6,3.7,3.2,5.1,4.9c1.4,1.6,2.5,3.4,3.3,5.2c0.8,1.8,1.2,3.8,1.2,6.1
			c0,3.9-1.1,8.1-3.4,12.7c-2.3,4.5-5.6,9.8-10,15.7c-1.4,1.9-2.8,3.6-4.2,5.1c-1.4,1.5-2.8,2.8-4.4,3.8c-1.6,1.1-3.4,1.9-5.3,2.4
			c-2,0.5-4.2,0.8-6.8,0.8c-3.7,0-8.8-1.2-15.3-3.5c-6.5-2.3-14-6.1-22.3-11.3L541.8,138.6z"/>
		<linearGradient id="SVGID_5_" gradientUnits="userSpaceOnUse" x1="635.624" y1="93.6912" x2="692.3853" y2="150.4524">
			<stop  offset="0" style="stop-color:#4D4D4D"/>
			<stop  offset="1" style="stop-color:#000000"/>
		</linearGradient>
		<path class="st4" d="M618.8,150.8c0-5.2,0.5-10.5,1.4-15.8c1-5.4,2.3-10.6,4.2-15.8c1.8-5.2,4-10.2,6.5-15
			c2.5-4.9,5.4-9.4,8.5-13.6c4.6-6.2,10.7-10.9,18-13.9c7.4-3,16.4-4.6,27.1-4.6c3.5,0,6.4,0.4,8.6,1.1s4.1,2.3,5.6,4.8
			c1.5,2.5,2.7,6.1,3.6,10.9c1,4.8,1.9,11.1,3,19.1l-25.6,5.2c-0.3-5.3-0.8-10.2-1.5-14.9c-0.7-4.6-1.6-9-2.7-13l-8.6,2.1
			c-5.5,10.2-9.8,19.7-12.9,28.5c-3.1,8.8-5.1,17.1-5.9,25l8.6,14c5.3-0.8,11.2-2.8,17.7-6c6.5-3.2,13.4-7.8,20.7-13.6l-1.3,13.8
			c-4.9,4.7-9.9,8.8-15.1,12.2c-5.2,3.4-10.2,6.2-14.8,8.3c-4.6,2.2-8.6,3.7-12.1,4.8c-3.5,1-5.8,1.5-7.1,1.5
			c-1.6,0-3.6-0.5-5.8-1.6s-4.6-2.7-7-4.8c-2.4-2.1-4.7-4.7-7-7.8C622.5,158.4,620.5,154.8,618.8,150.8z"/>
		<linearGradient id="SVGID_6_" gradientUnits="userSpaceOnUse" x1="730.9488" y1="92.293" x2="782.1484" y2="143.4927">
			<stop  offset="0" style="stop-color:#4D4D4D"/>
			<stop  offset="1" style="stop-color:#000000"/>
		</linearGradient>
		<path class="st5" d="M738.3,175.8c-8.5-5-14.8-10.4-19.1-16.4c-4.2-5.9-6.4-12.1-6.4-18.5c0-6.6,0.9-13.1,2.8-19.6
			c1.9-6.5,4.6-12.8,8.3-18.7c3.6-5.9,8.1-11.5,13.4-16.7c5.3-5.2,11.4-9.7,18.2-13.5l7.4,6.7l27.5-6.9l3.6,3.4
			c1,2.5,1.9,5.5,2.8,8.9c0.8,3.4,1.2,7.3,1.2,11.6c0,7.9-1.3,15.7-4,23.4c-2.7,7.8-6.5,15.1-11.6,22.1c-5.1,7-11.3,13.5-18.8,19.3
			C756.2,166.9,747.7,171.8,738.3,175.8z M744,155.6c9-7,15.6-14.7,20-23.1c4.4-8.4,6.6-17.8,6.6-28.2c0-3.7-0.4-7-1.2-9.9
			c-0.8-2.9-1.9-5.5-3.2-7.7l-3.2,0.2c-3.5,3.4-6.7,7.4-9.5,12.2c-2.9,4.8-5.3,9.8-7.4,15.2c-2.1,5.4-3.6,10.8-4.7,16.4
			c-1.1,5.6-1.6,10.8-1.6,15.7c0,1,0,1.9,0.1,2.7c0.1,0.9,0.2,1.7,0.3,2.5L744,155.6z"/>
	</g>
</g>
<g id="Layer_3">
	<linearGradient id="SVGID_7_" gradientUnits="userSpaceOnUse" x1="7.469" y1="81.7705" x2="42.6408" y2="116.9423">
		<stop  offset="0" style="stop-color:#39B54A"/>
		<stop  offset="1" style="stop-color:#006837"/>
	</linearGradient>
	<ellipse class="st6" cx="25.1" cy="99.4" rx="25.1" ry="24.6"/>
	<linearGradient id="SVGID_8_" gradientUnits="userSpaceOnUse" x1="90.0653" y1="67.83" x2="153.8877" y2="131.6524">
		<stop  offset="0" style="stop-color:#39B54A"/>
		<stop  offset="1" style="stop-color:#006837"/>
	</linearGradient>
	<path class="st7" d="M64,99.4c0-14.8,20.1-14.8,20.1-14.8h75.3c0,0,20.1-1.2,20.1,14.8c0,17.2-20.1,16-20.1,16H84.1
		C84.1,115.4,64,115.4,64,99.4z"/>
	<linearGradient id="SVGID_9_" gradientUnits="userSpaceOnUse" x1="98.1462" y1="19.6838" x2="133.0987" y2="54.6364">
		<stop  offset="0" style="stop-color:#39B54A"/>
		<stop  offset="1" style="stop-color:#006837"/>
	</linearGradient>
	<path class="st8" d="M66.1,66.6c-8-12.5,9.1-23,9.1-23l63.9-39.1c0,0,16.4-11.5,25,2.1c9.3,14.6-8.4,24-8.4,24L91.8,69.8
		C91.8,69.8,74.8,80.2,66.1,66.6z"/>
	<linearGradient id="SVGID_10_" gradientUnits="userSpaceOnUse" x1="75.6862" y1="122.7479" x2="155.3645" y2="202.4262">
		<stop  offset="0" style="stop-color:#39B54A"/>
		<stop  offset="1" style="stop-color:#006837"/>
	</linearGradient>
	<path class="st9" d="M67,131.9c8.1-12.5,25-1.9,25-1.9l63.5,39.7c0,0,17.6,9.5,8.9,23c-9.4,14.5-25.7,2.9-25.7,2.9l-63.5-39.7
		C75.2,155.9,58.3,145.4,67,131.9z"/>
</g>
</svg>
