<?xml version="1.0" standalone="no"?>
<!DOCTYPE svg PUBLIC "-//W3C//DTD SVG 20010904//EN"
 "http://www.w3.org/TR/2001/REC-SVG-20010904/DTD/svg10.dtd">
<svg version="1.0" xmlns="http://www.w3.org/2000/svg"
 width="202.000000pt" height="202.000000pt" viewBox="0 0 202.000000 202.000000"
 preserveAspectRatio="xMidYMid meet">
<metadata>
Created by potrace 1.11, written by Peter Selinger 2001-2013
</metadata>
<g transform="translate(0.000000,202.000000) scale(0.100000,-0.100000)"
fill="#000000" stroke="none">
<path d="M1555 1991 c-71 -32 -699 -422 -733 -454 -19 -18 -40 -44 -48 -59
-33 -63 -6 -148 58 -189 41 -25 125 -21 185 10 118 60 702 426 730 458 59 65
56 148 -6 213 -35 37 -42 40 -92 40 -31 0 -71 -8 -94 -19z m-655 -414 c0 -1
-28 -29 -61 -62 -34 -33 -57 -51 -51 -39 15 30 112 117 112 101z"/>
<path d="M319 1263 c-52 -8 -132 -66 -163 -117 -59 -94 -45 -222 31 -301 51
-52 105 -75 181 -75 104 0 178 42 226 130 68 126 12 291 -119 346 -36 15 -118
24 -156 17z m-39 -26 c0 -1 -32 -34 -71 -72 -70 -68 -77 -70 -36 -12 22 32
107 99 107 84z"/>
<path d="M870 1151 c-77 -27 -110 -67 -110 -132 0 -68 27 -111 88 -141 l47
-23 450 0 450 0 43 23 c33 18 49 35 64 69 36 82 10 158 -68 198 -37 19 -61 20
-474 22 -406 3 -439 1 -490 -16z m30 -4 c0 -1 -29 -32 -65 -67 -53 -53 -65
-60 -65 -43 0 28 46 82 85 99 29 13 45 17 45 11z"/>
<path d="M844 741 c-52 -24 -90 -93 -81 -148 9 -51 51 -107 111 -146 136 -90
655 -411 683 -423 43 -18 117 -18 153 1 42 22 80 82 80 127 0 49 -12 79 -48
115 -44 43 -706 454 -766 475 -65 22 -81 22 -132 -1z m76 6 c0 -1 -34 -36 -76
-77 -76 -74 -76 -75 -70 -41 9 47 50 99 89 110 33 10 57 13 57 8z"/>
</g>
</svg>
